<svg width="64" height="80" xmlns="http://www.w3.org/2000/svg">

 <g>
  <title>background</title>
  <rect fill="none" id="canvas_background" height="402" width="582" y="-1" x="-1"/>
 </g>
 <g>
  <title>Layer 1</title>
  <g id="svg_1">
   <path id="svg_2" d="m62,26.938l0,-9.489l-19.844,-12.533l-14.102,4.028l-4.936,-1.974l-13.904,2.139l-2.14,7.49l-6.168,10.281l4.166,12.492l2.183,5.455l0.052,0.015l0.036,0.098l0.136,-0.049l7.121,2.035l9.887,5.932l12.537,4.204l21.79,-8.301l4.207,-13.672l-1.021,-8.151zm-8.094,-3.853l6.094,-3.386l0,5.823l-6.094,-2.437zm-7.104,-2.842l-4.234,-12.701l16.472,10.403l-7.526,4.181l0.002,0.003l-4.714,-1.886zm-23.92,-11.213l4.393,1.758l1.83,3.66l1.789,-0.895l-1.461,-2.922l11.008,-3.145l4.283,12.848l-15.608,4.591l-11.096,-6.053l-0.065,0.033l-8.511,-3.405l1.342,-4.609l12.096,-1.861zm-14.025,8.485l0.025,-0.084l6.679,2.672l-11.794,5.895l5.09,-8.483zm1.808,26.217l6.839,-2.487l2.028,4.056l-4.465,-0.298l-0.001,0.01l-4.401,-1.281zm8.401,3.541l8.957,0.597l-2.578,3.223l-0.024,-0.008l-6.355,-3.812zm26.352,0.762l8.054,0.62l-13.011,4.956l4.957,-5.576zm11.862,-1.093l-11.742,-0.903l-7.729,-10.627l-1.617,1.177l7.526,10.349l-7.027,7.906l-9.224,-3.075l3.218,-4.022l2.871,-1.914l-1.109,-1.664l-2.717,1.812l-7.883,-0.525l-3.349,-6.698l-10.057,3.654l-1.492,-3.728l-3.44,-10.32l14.471,-7.236l9.839,5.367l-1.541,5.392l-6.136,-0.876l-0.283,1.979l7.864,1.124l2.088,-7.309l16.139,-4.747l14.139,5.656l0.821,6.62l-10.252,3.726l0.684,1.88l9.111,-3.313l-3.173,10.315z"/>
   <path id="svg_3" d="m49,30c0,-1.682 -1.757,-3 -4,-3s-4,1.318 -4,3s1.757,3 4,3s4,-1.318 4,-3zm-6,0c0,-0.398 0.798,-1 2,-1s2,0.602 2,1s-0.798,1 -2,1s-2,-0.602 -2,-1z"/>
   <path id="svg_4" d="m21,18c2.851,0 5,-1.29 5,-3s-2.149,-3 -5,-3s-5,1.29 -5,3s2.149,3 5,3zm0,-4c1.936,0 3,0.751 3,1s-1.064,1 -3,1s-3,-0.751 -3,-1s1.064,-1 3,-1z"/>
   <path id="svg_5" d="m12,36c-1.202,0 -2,-0.602 -2,-1s0.798,-1 2,-1l0,-2c-2.243,0 -4,1.318 -4,3s1.757,3 4,3s4,-1.318 4,-3l-2,0c0,0.398 -0.798,1 -2,1z"/>
   <path id="svg_6" d="m28,36c-2.757,0 -5,1.794 -5,4s2.243,4 5,4s5,-1.794 5,-4s-2.243,-4 -5,-4zm0,6c-1.626,0 -3,-0.916 -3,-2s1.374,-2 3,-2s3,0.916 3,2s-1.374,2 -3,2z"/>
   <path id="svg_7" d="m30,51l2,0c0,-0.408 0.779,-1 2,-1c1.202,0 2,0.602 2,1l2,0c0,-1.682 -1.757,-3 -4,-3s-4,1.318 -4,3z"/>
   <path id="svg_8" d="m37,16c1.202,0 2,0.602 2,1s-0.798,1 -2,1l0,2c2.243,0 4,-1.318 4,-3s-1.757,-3 -4,-3s-4,1.318 -4,3l2,0c0,-0.398 0.798,-1 2,-1z"/>
   <path id="svg_9" d="m54,40c-1.654,0 -3,1.346 -3,3s1.346,3 3,3s3,-1.346 3,-3s-1.346,-3 -3,-3zm0,4c-0.551,0 -1,-0.449 -1,-1s0.449,-1 1,-1s1,0.449 1,1s-0.449,1 -1,1z"/>
   <path id="svg_10" d="m50,30c0,2.206 -2.243,4 -5,4l0,2c3.86,0 7,-2.691 7,-6l-2,0z"/>
   <path id="svg_11" d="m21,26c0,-1.654 -1.346,-3 -3,-3s-3,1.346 -3,3s1.346,3 3,3s3,-1.346 3,-3zm-3,1c-0.551,0 -1,-0.449 -1,-1s0.449,-1 1,-1s1,0.449 1,1s-0.449,1 -1,1z"/>
  </g>
  <text id="svg_13" font-family="'Helvetica Neue', Helvetica, Arial-Unicode, Arial, Sans-serif" font-weight="bold" font-size="5px" fill="#000000" y="84" x="0">from the Noun Project</text>
 </g>
</svg>