<svg xmlns="http://www.w3.org/2000/svg" xmlns:xlink="http://www.w3.org/1999/xlink" version="1.1" x="0px" y="0px" viewBox="0 0 64 80" style="enable-background:new 0 0 64 64;" xml:space="preserve"><g><path d="M62,27.938v-9.489L42.156,5.916L28.054,9.944L23.118,7.97L9.214,10.109l-2.14,7.49L0.906,27.88l4.166,12.492l2.183,5.455   l0.052,0.015l0.036,0.098l0.136-0.049l7.121,2.035l9.887,5.932l12.537,4.204l21.79-8.301l4.207-13.672L62,27.938z M53.906,24.085   L60,20.699v5.823L53.906,24.085z M46.802,21.243L42.568,8.542L59.04,18.945l-7.526,4.181l0.002,0.003L46.802,21.243z M22.882,10.03   l4.393,1.758l1.83,3.66l1.789-0.895l-1.461-2.922l11.008-3.145l4.283,12.848l-15.608,4.591L18.02,19.872l-0.065,0.033L9.444,16.5   l1.342-4.609L22.882,10.03z M8.857,18.515l0.025-0.084l6.679,2.672L3.767,26.998L8.857,18.515z M10.665,44.732l6.839-2.487   l2.028,4.056l-4.465-0.298l-0.001,0.01L10.665,44.732z M19.066,48.273l8.957,0.597l-2.578,3.223l-0.024-0.008L19.066,48.273z    M45.418,49.035l8.054,0.62l-13.011,4.956L45.418,49.035z M57.28,47.942l-11.742-0.903l-7.729-10.627l-1.617,1.177l7.526,10.349   l-7.027,7.906l-9.224-3.075l3.218-4.022l2.871-1.914l-1.109-1.664l-2.717,1.812l-7.883-0.525l-3.349-6.698L8.441,43.412   l-1.492-3.728l-3.44-10.32l14.471-7.236l9.839,5.367l-1.541,5.392l-6.136-0.876l-0.283,1.979l7.864,1.124l2.088-7.309l16.139-4.747   l14.139,5.656l0.821,6.62L50.658,39.06l0.684,1.88l9.111-3.313L57.28,47.942z"/><path d="M49,31c0-1.682-1.757-3-4-3s-4,1.318-4,3s1.757,3,4,3S49,32.682,49,31z M43,31c0-0.398,0.798-1,2-1s2,0.602,2,1   s-0.798,1-2,1S43,31.398,43,31z"/><path d="M21,19c2.851,0,5-1.29,5-3s-2.149-3-5-3s-5,1.29-5,3S18.149,19,21,19z M21,15c1.936,0,3,0.751,3,1s-1.064,1-3,1   s-3-0.751-3-1S19.064,15,21,15z"/><path d="M12,37c-1.202,0-2-0.602-2-1s0.798-1,2-1v-2c-2.243,0-4,1.318-4,3s1.757,3,4,3s4-1.318,4-3h-2C14,36.398,13.202,37,12,37z"/><path d="M28,37c-2.757,0-5,1.794-5,4s2.243,4,5,4s5-1.794,5-4S30.757,37,28,37z M28,43c-1.626,0-3-0.916-3-2s1.374-2,3-2   s3,0.916,3,2S29.626,43,28,43z"/><path d="M30,52h2c0-0.408,0.779-1,2-1c1.202,0,2,0.602,2,1h2c0-1.682-1.757-3-4-3S30,50.318,30,52z"/><path d="M37,17c1.202,0,2,0.602,2,1s-0.798,1-2,1v2c2.243,0,4-1.318,4-3s-1.757-3-4-3s-4,1.318-4,3h2C35,17.602,35.798,17,37,17z"/><path d="M54,41c-1.654,0-3,1.346-3,3s1.346,3,3,3s3-1.346,3-3S55.654,41,54,41z M54,45c-0.551,0-1-0.449-1-1s0.449-1,1-1   s1,0.449,1,1S54.551,45,54,45z"/><path d="M50,31c0,2.206-2.243,4-5,4v2c3.86,0,7-2.691,7-6H50z"/><path d="M21,27c0-1.654-1.346-3-3-3s-3,1.346-3,3s1.346,3,3,3S21,28.654,21,27z M18,28c-0.551,0-1-0.449-1-1s0.449-1,1-1   s1,0.449,1,1S18.551,28,18,28z"/></g><text x="0" y="79" fill="#000000" font-size="5px" font-weight="bold" font-family="'Helvetica Neue', Helvetica, Arial-Unicode, Arial, Sans-serif">Created by Eucalyp</text><text x="0" y="84" fill="#000000" font-size="5px" font-weight="bold" font-family="'Helvetica Neue', Helvetica, Arial-Unicode, Arial, Sans-serif">from the Noun Project</text></svg>