<svg width="100" height="125" xmlns="http://www.w3.org/2000/svg">

 <g>
  <title>background</title>
  <rect fill="none" id="canvas_background" height="402" width="582" y="-1" x="-1"/>
 </g>
 <g>
  <title>Layer 1</title>
  <g id="svg_1">
   <path id="svg_2" d="m88.425,58.959l-8.151,-5.12l0.179,-4.274l10.161,-7.917c0.223,-0.172 0.361,-0.428 0.384,-0.709c0.022,-0.279 -0.075,-0.555 -0.265,-0.76c-4.621,-4.966 -11.631,-12.524 -12.02,-13.002c-0.167,-0.261 -0.35,-0.537 -14.044,-6.08c-0.119,-0.049 -0.246,-0.074 -0.375,-0.074l-6.288,0l-2.594,-4.588c-0.184,-0.323 -0.52,-0.508 -0.871,-0.508c-0.139,0 -0.279,0.027 -0.414,0.09l-25.097,11.446l-9.456,0.651c-0.266,0.018 -0.514,0.142 -0.689,0.345l-3.436,3.99c-0.16,0.186 -0.246,0.424 -0.242,0.669l0.099,5.96l-5.545,1.361c-0.28,0.069 -0.516,0.256 -0.649,0.512c-0.133,0.256 -0.148,0.556 -0.043,0.824l7.811,19.912l0.433,6.602c0.01,0.15 0.054,0.298 0.129,0.43l4.102,7.202c0.209,0.367 0.623,0.563 1.043,0.49l7.386,-1.304l4.811,0.604l5.293,5.612c0.163,0.173 0.381,0.282 0.617,0.308l21.828,2.434c0.102,0.013 0.209,0.007 0.311,-0.015l10.857,-2.213c0.289,-0.059 0.537,-0.241 0.68,-0.5l2.545,-4.655c0.057,-0.105 0.094,-0.22 0.111,-0.338l1.271,-8.867l10.156,-6.845c0.281,-0.188 0.445,-0.507 0.441,-0.845c-0.005,-0.338 -0.182,-0.65 -0.469,-0.828zm-49.357,18.38l2.745,-9.339l4.314,4.622l0.877,-0.817l-6.015,-6.445l3.049,-25.361l13.345,-15.887l8.561,12.099l-7.428,-4.612c-0.097,-0.061 -0.207,-0.091 -0.315,-0.091c-0.163,0 -0.325,0.067 -0.442,0.195l-9.639,10.524c-0.199,0.217 -0.211,0.545 -0.028,0.776c2.946,3.737 10.656,13.524 10.938,13.927l1,-0.664c-0.192,-0.295 -6.954,-8.877 -9.927,-12.649l6.417,-2.915l21.306,2.768l-4.97,18.09l-7.379,5.75l0.738,0.945l4.368,-3.402l5.742,2.275l-1.255,8.754l-2.234,4.09l-10.25,2.088l-21.307,-2.375l-2.211,-2.346zm30.386,-36.169l-12.95,-1.682c-0.025,-0.004 -0.052,-0.006 -0.077,-0.006c-0.085,0 -0.17,0.019 -0.247,0.055l-6.8,3.088l8.927,-9.746l9.42,5.85l1.727,2.441zm-35.154,32.465l4.971,-1.236l-1.155,3.931l-2.124,-2.252c-0.16,-0.169 -0.374,-0.277 -0.604,-0.306l-1.088,-0.137zm-4.526,-0.522l-2.049,0.361l-0.943,-5.951l0.324,-9.027l4.138,-9.686l8.816,-11.352l13.881,-14.426l2.761,-0.323c0.051,0.054 0.11,0.099 0.172,0.14l-13.869,16.514c-0.075,0.089 -0.123,0.197 -0.137,0.314l-3.104,25.815c-0.022,0.176 0.036,0.353 0.157,0.481l0.941,1.008l-1.2,4.082l-8.673,2.156l-0.918,-0.115c-0.099,-0.013 -0.199,-0.008 -0.297,0.009zm-13.216,-32.285c0.269,-0.066 0.48,-0.245 0.613,-0.473l11.641,-1.441l-5.191,13.807l1.123,0.422l5.512,-14.66l7.029,-9.947l12.679,-3.098l-10.811,11.238l-8.905,11.461c-0.032,0.039 -0.057,0.084 -0.078,0.131l-4.212,9.859c-0.029,0.068 -0.045,0.141 -0.048,0.214l-0.33,9.198c-0.001,0.038 0.001,0.077 0.007,0.115l0.956,6.027l-3.609,0.637l-3.64,-6.389l-0.428,-6.529c-0.006,-0.103 -0.029,-0.203 -0.067,-0.299l-7.45,-18.992l5.209,-1.281zm39.467,-19.247l-2.438,0.285c-0.138,0.016 -0.267,0.08 -0.362,0.18l-1.707,1.774l-14.735,3.601c-0.141,0.035 -0.264,0.119 -0.348,0.237l-7.049,9.976l-12.078,1.497l-0.094,-5.666l2.915,-3.385l9.221,-0.635c0.12,-0.008 0.238,-0.038 0.347,-0.088l24.428,-11.142l1.9,3.366zm30.036,38.252l-9.215,6.21l-5.164,-2.047l2.069,-1.613c0.103,-0.078 0.175,-0.189 0.209,-0.314l5.205,-18.948c0.047,-0.167 0.019,-0.347 -0.078,-0.491s-0.251,-0.24 -0.423,-0.263l-7.59,-0.986l-2.156,-3.047l0.124,-0.2l-0.476,-0.295l-10.481,-14.816l6.017,0c4.701,1.904 12.146,4.973 13.164,5.524c1.057,1.206 6.445,7.017 11.26,12.193l-9.666,7.528c-0.232,0.182 -0.373,0.455 -0.385,0.748l-0.224,5.315c-0.015,0.358 0.163,0.698 0.467,0.89l7.343,4.612z"/>
   <path id="svg_3" d="m69.631,38.133l10.747,-0.332c0.213,-0.007 0.406,-0.126 0.509,-0.313c0.102,-0.188 0.096,-0.415 -0.014,-0.598l-4.876,-8.088l-1.026,0.618l4.346,7.211l-9.723,0.3l0.037,1.202z"/>
   <path id="svg_4" d="m55.637,74.374c-0.117,0.14 -0.166,0.327 -0.13,0.507c0.036,0.182 0.153,0.334 0.317,0.417l9.418,4.763l0.541,-1.071l-8.739,-4.419l6.821,-8.063l-0.916,-0.774l-7.312,8.64z"/>
  </g>
 </g>
</svg>